<svg width="24" height="24" viewBox="0 0 24 24" fill="none" xmlns="http://www.w3.org/2000/svg">
<path d="M23.4564 7.66891C23.1564 6.26266 22.6689 5.10016 21.8064 4.18141C20.5877 2.83141 18.9939 2.17516 17.1001 2.17516H16.8564C14.8502 2.23141 13.2001 3.03766 12.0376 4.50016C11.6064 4.01266 11.0627 3.52516 10.4439 3.15016C9.22515 2.41891 7.8189 2.11891 6.22515 2.23141C4.46265 2.41891 3.0564 3.20641 2.0064 4.50016C0.90015 5.96266 0.3564 7.61266 0.41265 9.31891C0.4689 10.9127 0.9564 12.3752 1.87515 13.7814C2.9064 15.3752 4.20015 16.5939 5.36265 17.5689C7.01265 19.0314 8.9064 20.3252 11.2877 21.6564C11.5314 21.7877 11.7189 21.8439 11.9627 21.8439C12.2064 21.8439 12.3939 21.7877 12.6377 21.6564C14.7189 20.4939 16.5377 19.2752 18.1877 17.8689C19.8939 16.4627 21.1126 15.1127 22.0877 13.6502C23.4002 11.7564 23.8127 9.80641 23.4564 7.66891Z" fill="#EB5757"/>
</svg>
