<svg width="40" height="40" viewBox="0 0 40 40" fill="none" xmlns="http://www.w3.org/2000/svg">
<path d="M33.7937 25.0883L32.5003 25.735L31.207 25.0883C31.0911 25.0303 30.9633 25 30.8337 25C30.704 25 30.5762 25.0303 30.4603 25.0883L29.167 25.735L28.3337 25.3183V7.5C28.3337 7.35789 28.2973 7.21815 28.2281 7.09405C28.1588 6.96994 28.059 6.86561 27.9381 6.79095C27.8172 6.7163 27.6792 6.67381 27.5372 6.66751C27.3953 6.66122 27.254 6.69134 27.127 6.755L25.8337 7.40167L24.5403 6.755C24.4244 6.69693 24.2966 6.66669 24.167 6.66669C24.0374 6.66669 23.9095 6.69693 23.7937 6.755L22.5003 7.40167L21.207 6.755C21.0911 6.69693 20.9633 6.66669 20.8337 6.66669C20.704 6.66669 20.5762 6.69693 20.4603 6.755L19.167 7.40167L17.8737 6.755C17.7578 6.69693 17.6299 6.66669 17.5003 6.66669C17.3707 6.66669 17.2429 6.69693 17.127 6.755L15.8337 7.40167L14.5403 6.755C14.4244 6.69693 14.2966 6.66669 14.167 6.66669C14.0374 6.66669 13.9095 6.69693 13.7937 6.755L12.5003 7.40167L11.207 6.755C11.0911 6.69693 10.9633 6.66669 10.8337 6.66669C10.704 6.66669 10.5762 6.69693 10.4603 6.755L9.16699 7.40167L7.87366 6.755C7.74661 6.69134 7.60539 6.66122 7.46342 6.66751C7.32146 6.67381 7.18346 6.7163 7.06254 6.79095C6.94162 6.86561 6.8418 6.96994 6.77257 7.09405C6.70334 7.21815 6.667 7.35789 6.66699 7.5V30.8333C6.66699 31.9384 7.10598 32.9982 7.88738 33.7796C8.66878 34.561 9.72859 35 10.8337 35H30.8337C31.9387 35 32.9985 34.561 33.7799 33.7796C34.5613 32.9982 35.0003 31.9384 35.0003 30.8333V25.8333C35.0003 25.6912 34.964 25.5515 34.8947 25.4274C34.8255 25.3033 34.7257 25.1989 34.6048 25.1243C34.4839 25.0496 34.3459 25.0071 34.2039 25.0008C34.0619 24.9946 33.9207 25.0247 33.7937 25.0883ZM17.5003 16.6667C17.4976 17.4035 17.2507 18.1187 16.7984 18.7004C16.3461 19.282 15.7138 19.6975 15.0003 19.8817V27.5C15.0003 27.721 14.9125 27.933 14.7562 28.0893C14.6 28.2455 14.388 28.3333 14.167 28.3333C13.946 28.3333 13.734 28.2455 13.5777 28.0893C13.4215 27.933 13.3337 27.721 13.3337 27.5V19.8817C12.6202 19.6975 11.9879 19.282 11.5356 18.7004C11.0833 18.1187 10.8364 17.4035 10.8337 16.6667V14.1667C10.8337 13.9457 10.9215 13.7337 11.0777 13.5774C11.234 13.4211 11.446 13.3333 11.667 13.3333C11.888 13.3333 12.1 13.4211 12.2562 13.5774C12.4125 13.7337 12.5003 13.9457 12.5003 14.1667V16.6667C12.5036 16.9541 12.5824 17.2356 12.7286 17.483C12.8748 17.7305 13.0835 17.9352 13.3337 18.0767V14.1667C13.3337 13.9457 13.4215 13.7337 13.5777 13.5774C13.734 13.4211 13.946 13.3333 14.167 13.3333C14.388 13.3333 14.6 13.4211 14.7562 13.5774C14.9125 13.7337 15.0003 13.9457 15.0003 14.1667V18.0767C15.2505 17.9352 15.4591 17.7305 15.6054 17.483C15.7516 17.2356 15.8303 16.9541 15.8337 16.6667V14.1667C15.8337 13.9457 15.9215 13.7337 16.0777 13.5774C16.234 13.4211 16.446 13.3333 16.667 13.3333C16.888 13.3333 17.1 13.4211 17.2562 13.5774C17.4125 13.7337 17.5003 13.9457 17.5003 14.1667V16.6667ZM23.2587 23.3783L20.8337 23.985V27.5C20.8337 27.721 20.7459 27.933 20.5896 28.0893C20.4333 28.2455 20.2213 28.3333 20.0003 28.3333C19.7793 28.3333 19.5673 28.2455 19.4111 28.0893C19.2548 27.933 19.167 27.721 19.167 27.5V14.1667C19.1667 14.0016 19.2154 13.8402 19.307 13.7029C19.3985 13.5656 19.5288 13.4586 19.6812 13.3954C19.8337 13.3322 20.0015 13.3157 20.1633 13.3479C20.3252 13.3802 20.4738 13.4598 20.5903 13.5767C21.728 14.7082 22.6299 16.0542 23.2438 17.5367C23.8577 19.0192 24.1715 20.6088 24.167 22.2133C24.1675 22.4811 24.0783 22.7413 23.9137 22.9524C23.7491 23.1636 23.5185 23.3135 23.2587 23.3783ZM33.3337 30.8333C33.3337 31.4964 33.0703 32.1323 32.6014 32.6011C32.1326 33.0699 31.4967 33.3333 30.8337 33.3333C30.1706 33.3333 29.5347 33.0699 29.0659 32.6011C28.5971 32.1323 28.3337 31.4964 28.3337 30.8333V27.1817L28.7937 27.4117C28.9095 27.4697 29.0374 27.5 29.167 27.5C29.2966 27.5 29.4244 27.4697 29.5403 27.4117L30.8337 26.765L32.127 27.4117C32.2429 27.4697 32.3707 27.5 32.5003 27.5C32.6299 27.5 32.7578 27.4697 32.8737 27.4117L33.3337 27.1817V30.8333Z" fill="#A098AE"/>
</svg>
