<svg width="40" height="40" viewBox="0 0 40 40" fill="none" xmlns="http://www.w3.org/2000/svg">
<path d="M8.33301 30.8333C8.33301 33.6967 14.813 35 20.833 35C26.853 35 33.333 33.6967 33.333 30.8333C33.333 28.56 29.398 27.5333 26.563 27.09L28.4997 25.1667C30.0148 23.6516 31.0467 21.7213 31.4648 19.6198C31.8829 17.5184 31.6684 15.3401 30.8485 13.3605C30.0285 11.3809 28.64 9.68893 26.8584 8.49851C25.0769 7.30809 22.9823 6.6727 20.8397 6.6727C18.697 6.6727 16.6025 7.30809 14.8209 8.49851C13.0393 9.68893 11.6508 11.3809 10.8309 13.3605C10.011 15.3401 9.79649 17.5184 10.2146 19.6198C10.6326 21.7213 11.6645 23.6516 13.1797 25.1667L15.1097 27.0967C12.268 27.5333 8.33301 28.56 8.33301 30.8333ZM22.4997 13.3333C22.4997 13.1786 22.5428 13.0269 22.6241 12.8952C22.7055 12.7636 22.8219 12.6572 22.9603 12.588C23.0988 12.5188 23.2537 12.4895 23.4078 12.5034C23.562 12.5173 23.7092 12.5738 23.833 12.6667C24.8649 13.4409 25.7218 14.4242 26.3476 15.5524C26.9735 16.6805 27.3541 17.928 27.4647 19.2133C27.5013 19.6082 27.3949 20.0031 27.1648 20.3261C26.9348 20.6491 26.5965 20.8788 26.2113 20.9733L24.1663 21.485V23.3333C24.1663 23.5544 24.0785 23.7663 23.9223 23.9226C23.766 24.0789 23.554 24.1667 23.333 24.1667C23.112 24.1667 22.9 24.0789 22.7438 23.9226C22.5875 23.7663 22.4997 23.5544 22.4997 23.3333V13.3333ZM14.9997 15V13.3333C14.9997 13.1123 15.0875 12.9004 15.2438 12.7441C15.4 12.5878 15.612 12.5 15.833 12.5C16.054 12.5 16.266 12.5878 16.4223 12.7441C16.5785 12.9004 16.6663 13.1123 16.6663 13.3333V15C16.6697 15.2874 16.7484 15.5689 16.8946 15.8164C17.0409 16.0638 17.2495 16.2685 17.4997 16.41V13.3333C17.4997 13.1123 17.5875 12.9004 17.7438 12.7441C17.9 12.5878 18.112 12.5 18.333 12.5C18.554 12.5 18.766 12.5878 18.9223 12.7441C19.0785 12.9004 19.1663 13.1123 19.1663 13.3333V16.41C19.4165 16.2685 19.6252 16.0638 19.7714 15.8164C19.9176 15.5689 19.9964 15.2874 19.9997 15V13.3333C19.9997 13.1123 20.0875 12.9004 20.2438 12.7441C20.4 12.5878 20.612 12.5 20.833 12.5C21.054 12.5 21.266 12.5878 21.4223 12.7441C21.5785 12.9004 21.6663 13.1123 21.6663 13.3333V15C21.6636 15.7369 21.4167 16.452 20.9644 17.0337C20.5121 17.6154 19.8798 18.0308 19.1663 18.215V23.3333C19.1663 23.5544 19.0785 23.7663 18.9223 23.9226C18.766 24.0789 18.554 24.1667 18.333 24.1667C18.112 24.1667 17.9 24.0789 17.7438 23.9226C17.5875 23.7663 17.4997 23.5544 17.4997 23.3333V18.215C16.7862 18.0308 16.1539 17.6154 15.7016 17.0337C15.2493 16.452 15.0024 15.7369 14.9997 15ZM16.5897 28.5767L19.0647 31.0533C19.2968 31.2857 19.5725 31.47 19.8759 31.5957C20.1793 31.7214 20.5046 31.7861 20.833 31.7861C21.1614 31.7861 21.4867 31.7214 21.7901 31.5957C22.0935 31.47 22.3692 31.2857 22.6013 31.0533L25.0763 28.5767C29.6563 29.1067 31.6663 30.3133 31.6663 30.8333C31.6663 31.58 27.9813 33.3333 20.833 33.3333C13.6847 33.3333 9.99967 31.58 9.99967 30.8333C9.99967 30.3133 12.0097 29.1067 16.5897 28.5767Z" fill="white"/>
</svg>
