<svg width="40" height="40" viewBox="0 0 40 40" fill="none" xmlns="http://www.w3.org/2000/svg">
<path d="M30.8337 10H10.8337C9.72859 10 8.66878 10.439 7.88738 11.2204C7.10598 12.0018 6.66699 13.0616 6.66699 14.1667V27.5C6.66699 28.6051 7.10598 29.6649 7.88738 30.4463C8.66878 31.2277 9.72859 31.6667 10.8337 31.6667H13.3337V33.3883C13.3337 33.6146 13.3951 33.8366 13.5114 34.0306C13.6276 34.2247 13.7944 34.3836 13.9939 34.4903C14.1933 34.5971 14.418 34.6477 14.644 34.6368C14.87 34.6259 15.0887 34.5538 15.277 34.4283L19.4187 31.6667H30.8337C31.9387 31.6667 32.9985 31.2277 33.7799 30.4463C34.5613 29.6649 35.0003 28.6051 35.0003 27.5V14.1667C35.0003 13.0616 34.5613 12.0018 33.7799 11.2204C32.9985 10.439 31.9387 10 30.8337 10ZM21.8337 20.5467L20.312 22.2717L20.527 24.565C20.5471 24.7804 20.511 24.9972 20.4224 25.1945C20.3337 25.3918 20.1954 25.5627 20.021 25.6906C19.8466 25.8185 19.642 25.8991 19.4272 25.9244C19.2124 25.9497 18.9947 25.9189 18.7953 25.835L16.667 24.915L14.5537 25.8333C14.3547 25.919 14.1368 25.9515 13.9215 25.9278C13.7062 25.904 13.5007 25.8247 13.3251 25.6978C13.1496 25.5708 13.01 25.4004 12.9201 25.2033C12.8301 25.0062 12.7929 24.7891 12.812 24.5733L13.0287 22.275L11.5003 20.5467C11.3571 20.3834 11.2589 20.1858 11.2152 19.9731C11.1715 19.7604 11.1839 19.54 11.2511 19.3336C11.3184 19.1271 11.4382 18.9417 11.5987 18.7956C11.7593 18.6494 11.9551 18.5476 12.167 18.5L14.4153 18L15.582 16.0167C15.7022 15.8427 15.8628 15.7005 16.05 15.6023C16.2373 15.5041 16.4456 15.4528 16.657 15.4528C16.8684 15.4528 17.0767 15.5041 17.2639 15.6023C17.4512 15.7005 17.6118 15.8427 17.732 16.0167L18.8987 18.0033L21.1453 18.5033C21.3581 18.5487 21.5553 18.6487 21.7177 18.7935C21.8801 18.9383 22.002 19.1228 22.0715 19.3289C22.1409 19.5351 22.1555 19.7558 22.1138 19.9693C22.0721 20.1828 21.9756 20.3818 21.8337 20.5467ZM27.5003 25H24.167C23.946 25 23.734 24.9122 23.5777 24.7559C23.4215 24.5996 23.3337 24.3877 23.3337 24.1667C23.3337 23.9457 23.4215 23.7337 23.5777 23.5774C23.734 23.4211 23.946 23.3333 24.167 23.3333H27.5003C27.7213 23.3333 27.9333 23.4211 28.0896 23.5774C28.2459 23.7337 28.3337 23.9457 28.3337 24.1667C28.3337 24.3877 28.2459 24.5996 28.0896 24.7559C27.9333 24.9122 27.7213 25 27.5003 25ZM30.0003 21.6667H24.167C23.946 21.6667 23.734 21.5789 23.5777 21.4226C23.4215 21.2663 23.3337 21.0543 23.3337 20.8333C23.3337 20.6123 23.4215 20.4004 23.5777 20.2441C23.734 20.0878 23.946 20 24.167 20H30.0003C30.2213 20 30.4333 20.0878 30.5896 20.2441C30.7459 20.4004 30.8337 20.6123 30.8337 20.8333C30.8337 21.0543 30.7459 21.2663 30.5896 21.4226C30.4333 21.5789 30.2213 21.6667 30.0003 21.6667ZM30.0003 18.3333H24.167C23.946 18.3333 23.734 18.2455 23.5777 18.0893C23.4215 17.933 23.3337 17.721 23.3337 17.5C23.3337 17.279 23.4215 17.067 23.5777 16.9107C23.734 16.7545 23.946 16.6667 24.167 16.6667H30.0003C30.2213 16.6667 30.4333 16.7545 30.5896 16.9107C30.7459 17.067 30.8337 17.279 30.8337 17.5C30.8337 17.721 30.7459 17.933 30.5896 18.0893C30.4333 18.2455 30.2213 18.3333 30.0003 18.3333Z" fill="#A098AE"/>
</svg>
