<svg width="40" height="40" viewBox="0 0 40 40" fill="none" xmlns="http://www.w3.org/2000/svg">
<path d="M6.66699 29.1667C6.66699 29.8297 6.93038 30.4656 7.39922 30.9344C7.86807 31.4033 8.50395 31.6667 9.16699 31.6667H10.0853C10.2766 32.6086 10.7876 33.4554 11.5318 34.0636C12.276 34.6719 13.2075 35.0042 14.1687 35.0042C15.1298 35.0042 16.0614 34.6719 16.8055 34.0636C17.5497 33.4554 18.0607 32.6086 18.252 31.6667H23.5003C24.6312 31.6587 25.7352 31.3211 26.677 30.695C26.677 30.7417 26.6637 30.7867 26.6637 30.8333C26.6631 31.7299 26.9517 32.6028 27.4867 33.3223C28.0217 34.0417 28.7745 34.5695 29.6333 34.827C30.4921 35.0846 31.411 35.0583 32.2537 34.752C33.0963 34.4458 33.8177 33.8758 34.3107 33.1269C34.8036 32.378 35.0419 31.4901 34.99 30.595C34.9381 29.6999 34.5989 28.8454 34.0228 28.1585C33.4466 27.4715 32.6642 26.9887 31.7919 26.7818C30.9195 26.5749 30.0036 26.6549 29.1803 27.01C29.3209 26.3869 29.357 25.7449 29.287 25.11L28.642 19.9433C28.8144 19.9811 28.9905 20.0001 29.167 20H30.0003C30.4424 20 30.8663 19.8244 31.1788 19.5118C31.4914 19.1993 31.667 18.7754 31.667 18.3333V16.6667C31.667 16.2246 31.4914 15.8007 31.1788 15.4881C30.8663 15.1756 30.4424 15 30.0003 15H29.167C28.7809 15.0018 28.4004 15.093 28.0554 15.2665C27.7104 15.44 27.4103 15.6911 27.1787 16L26.9103 15.7317C26.4405 15.265 25.8058 15.0021 25.1437 15H24.167C23.946 15 23.734 15.0878 23.5777 15.2441C23.4215 15.4003 23.3337 15.6123 23.3337 15.8333C23.3337 16.0543 23.4215 16.2663 23.5777 16.4226C23.734 16.5789 23.946 16.6667 24.167 16.6667H25.1437C25.3642 16.6667 25.5758 16.7542 25.732 16.91L26.7053 17.8833C26.7303 18.0383 27.3287 22.8467 27.637 25.3167C27.7103 25.9031 27.658 26.4984 27.4836 27.063C27.3091 27.6277 27.0166 28.1488 26.6254 28.5917C26.2341 29.0346 25.7532 29.3893 25.2144 29.6321C24.6756 29.8749 24.0913 30.0003 23.5003 30H23.1837L21.667 22.4183V20.8333C21.667 20.1703 21.4036 19.5344 20.9348 19.0656C20.4659 18.5967 19.83 18.3333 19.167 18.3333H15.8337V14.1667C15.8337 13.5036 15.5703 12.8677 15.1014 12.3989C14.6326 11.93 13.9967 11.6667 13.3337 11.6667H9.16699C8.50395 11.6667 7.86807 11.93 7.39922 12.3989C6.93038 12.8677 6.66699 13.5036 6.66699 14.1667V20.8333C6.66699 21.4964 6.93038 22.1322 7.39922 22.6011C7.86807 23.0699 8.50395 23.3333 9.16699 23.3333H9.51033C8.62766 24.0287 7.91348 24.9145 7.42114 25.9246C6.92879 26.9347 6.67099 28.043 6.66699 29.1667ZM30.8337 28.3333C31.3281 28.3333 31.8115 28.4799 32.2226 28.7547C32.6337 29.0294 32.9541 29.4198 33.1434 29.8766C33.3326 30.3334 33.3821 30.8361 33.2856 31.321C33.1892 31.806 32.9511 32.2515 32.6014 32.6011C32.2518 32.9507 31.8063 33.1888 31.3214 33.2853C30.8364 33.3818 30.3338 33.3322 29.877 33.143C29.4201 32.9538 29.0297 32.6334 28.755 32.2222C28.4803 31.8111 28.3337 31.3278 28.3337 30.8333C28.3337 30.1703 28.5971 29.5344 29.0659 29.0656C29.5347 28.5967 30.1706 28.3333 30.8337 28.3333ZM15.8337 20H19.167C19.388 20 19.6 20.0878 19.7562 20.2441C19.9125 20.4003 20.0003 20.6123 20.0003 20.8333V21.6667H15.8337V20ZM16.5137 31.6667C16.344 32.1538 16.0269 32.576 15.6064 32.8748C15.1859 33.1736 14.6828 33.3341 14.167 33.3341C13.6512 33.3341 13.1481 33.1736 12.7276 32.8748C12.3071 32.576 11.99 32.1538 11.8203 31.6667H16.5137ZM8.33366 14.1667C8.33366 13.9456 8.42146 13.7337 8.57774 13.5774C8.73402 13.4211 8.94598 13.3333 9.16699 13.3333H13.3337C13.5547 13.3333 13.7666 13.4211 13.9229 13.5774C14.0792 13.7337 14.167 13.9456 14.167 14.1667V15H8.33366V14.1667ZM8.33366 16.6667H14.167V18.3083H8.33366V16.6667ZM9.16699 21.6667C8.94598 21.6667 8.73402 21.5789 8.57774 21.4226C8.42146 21.2663 8.33366 21.0543 8.33366 20.8333V19.975H14.167V21.6667H9.16699Z" fill="#A098AE"/>
</svg>
