<svg width="24" height="18" viewBox="0 0 24 18" fill="none" xmlns="http://www.w3.org/2000/svg">
<path d="M22.4335 2.62667C22.0491 2.54828 21.6963 2.3586 21.4189 2.08122C21.1416 1.80384 20.9519 1.45102 20.8735 1.06667C20.812 0.765503 20.6484 0.494828 20.4103 0.300452C20.1722 0.106076 19.8742 -6.27068e-05 19.5668 2.77942e-08H7.50016V1.33333C7.50016 1.51014 7.42992 1.67971 7.3049 1.80474C7.17988 1.92976 7.01031 2 6.8335 2C6.65668 2 6.48711 1.92976 6.36209 1.80474C6.23707 1.67971 6.16683 1.51014 6.16683 1.33333V2.77942e-08H4.76683C4.45946 -6.27068e-05 4.1615 0.106076 3.92339 0.300452C3.68528 0.494828 3.52164 0.765503 3.46016 1.06667C3.38178 1.45102 3.19209 1.80384 2.91472 2.08122C2.63734 2.3586 2.28452 2.54828 1.90016 2.62667C1.599 2.68814 1.32832 2.85178 1.13395 3.08989C0.939572 3.328 0.833433 3.62596 0.833496 3.93333V13.4C0.833433 13.7074 0.939572 14.0053 1.13395 14.2434C1.32832 14.4816 1.599 14.6452 1.90016 14.7067C2.28452 14.7851 2.63734 14.9747 2.91472 15.2521C3.19209 15.5295 3.38178 15.8823 3.46016 16.2667C3.52164 16.5678 3.68528 16.8385 3.92339 17.0329C4.1615 17.2273 4.45946 17.3334 4.76683 17.3333H6.16683V16C6.16683 15.8232 6.23707 15.6536 6.36209 15.5286C6.48711 15.4036 6.65668 15.3333 6.8335 15.3333C7.01031 15.3333 7.17988 15.4036 7.3049 15.5286C7.42992 15.6536 7.50016 15.8232 7.50016 16V17.3333H19.5668C19.8742 17.3334 20.1722 17.2273 20.4103 17.0329C20.6484 16.8385 20.812 16.5678 20.8735 16.2667C20.9519 15.8823 21.1416 15.5295 21.4189 15.2521C21.6963 14.9747 22.0491 14.7851 22.4335 14.7067C22.7347 14.6452 23.0053 14.4816 23.1997 14.2434C23.3941 14.0053 23.5002 13.7074 23.5002 13.4V3.93333C23.5002 3.62596 23.3941 3.328 23.1997 3.08989C23.0053 2.85178 22.7347 2.68814 22.4335 2.62667ZM7.50016 13.4333C7.50016 13.6101 7.42992 13.7797 7.3049 13.9047C7.17988 14.0298 7.01031 14.1 6.8335 14.1C6.65668 14.1 6.48711 14.0298 6.36209 13.9047C6.23707 13.7797 6.16683 13.6101 6.16683 13.4333V11.9667C6.16683 11.7899 6.23707 11.6203 6.36209 11.4953C6.48711 11.3702 6.65668 11.3 6.8335 11.3C7.01031 11.3 7.17988 11.3702 7.3049 11.4953C7.42992 11.6203 7.50016 11.7899 7.50016 11.9667V13.4333ZM7.50016 9.4C7.50016 9.57681 7.42992 9.74638 7.3049 9.8714C7.17988 9.99643 7.01031 10.0667 6.8335 10.0667C6.65668 10.0667 6.48711 9.99643 6.36209 9.8714C6.23707 9.74638 6.16683 9.57681 6.16683 9.4V7.93333C6.16683 7.75652 6.23707 7.58695 6.36209 7.46193C6.48711 7.33691 6.65668 7.26667 6.8335 7.26667C7.01031 7.26667 7.17988 7.33691 7.3049 7.46193C7.42992 7.58695 7.50016 7.75652 7.50016 7.93333V9.4ZM7.50016 5.36533C7.50016 5.54214 7.42992 5.71171 7.3049 5.83674C7.17988 5.96176 7.01031 6.032 6.8335 6.032C6.65668 6.032 6.48711 5.96176 6.36209 5.83674C6.23707 5.71171 6.16683 5.54214 6.16683 5.36533V3.89867C6.16683 3.72186 6.23707 3.55229 6.36209 3.42726C6.48711 3.30224 6.65668 3.232 6.8335 3.232C7.01031 3.232 7.17988 3.30224 7.3049 3.42726C7.42992 3.55229 7.50016 3.72186 7.50016 3.89867V5.36533ZM14.8335 6C14.8313 6.58948 14.6338 7.16161 14.272 7.62695C13.9101 8.0923 13.4043 8.42463 12.8335 8.572V13.3333C12.8335 13.5101 12.7633 13.6797 12.6382 13.8047C12.5132 13.9298 12.3436 14 12.1668 14C11.99 14 11.8204 13.9298 11.6954 13.8047C11.5704 13.6797 11.5002 13.5101 11.5002 13.3333V8.572C10.9294 8.42463 10.4236 8.0923 10.0617 7.62695C9.69984 7.16161 9.50237 6.58948 9.50016 6V4C9.50016 3.82319 9.5704 3.65362 9.69542 3.52859C9.82045 3.40357 9.99002 3.33333 10.1668 3.33333C10.3436 3.33333 10.5132 3.40357 10.6382 3.52859C10.7633 3.65362 10.8335 3.82319 10.8335 4V6C10.8361 6.22993 10.8991 6.45512 11.0161 6.65308C11.1331 6.85103 11.3 7.0148 11.5002 7.128V4C11.5002 3.82319 11.5704 3.65362 11.6954 3.52859C11.8204 3.40357 11.99 3.33333 12.1668 3.33333C12.3436 3.33333 12.5132 3.40357 12.6382 3.52859C12.7633 3.65362 12.8335 3.82319 12.8335 4V7.128C13.0336 7.0148 13.2006 6.85103 13.3175 6.65308C13.4345 6.45512 13.4975 6.22993 13.5002 6V4C13.5002 3.82319 13.5704 3.65362 13.6954 3.52859C13.8204 3.40357 13.99 3.33333 14.1668 3.33333C14.3436 3.33333 14.5132 3.40357 14.6382 3.52859C14.7633 3.65362 14.8335 3.82319 14.8335 4V6ZM19.4162 10.7867L17.5002 11.7453V13.3333C17.5002 13.5101 17.4299 13.6797 17.3049 13.8047C17.1799 13.9298 17.0103 14 16.8335 14C16.6567 14 16.4871 13.9298 16.3621 13.8047C16.2371 13.6797 16.1668 13.5101 16.1668 13.3333V4C16.1666 3.86797 16.2056 3.73885 16.2788 3.629C16.352 3.51914 16.4562 3.43351 16.5782 3.38295C16.7002 3.3324 16.8344 3.31919 16.9639 3.34502C17.0934 3.37084 17.2123 3.43452 17.3055 3.528C18.981 5.0914 19.9992 7.23356 20.1535 9.52C20.1677 9.78007 20.1055 10.0386 19.9745 10.2637C19.8434 10.4888 19.6494 10.6706 19.4162 10.7867Z" fill="white"/>
</svg>
