<svg width="30" height="32" viewBox="0 0 30 32" fill="none" xmlns="http://www.w3.org/2000/svg">
<path d="M19.6436 22.3562L19.5686 19.7C20.1311 19.5937 20.9186 18.6437 21.2373 18.1375L20.1623 15.725C19.5686 15.6313 18.3373 15.575 17.8811 15.925L15.9561 14.0938C16.2748 13.625 16.1623 12.4 16.0248 11.8188L13.5561 10.875C13.0748 11.2187 12.1686 12.0563 12.0936 12.625L9.43731 12.6937C9.33106 12.1312 8.37481 11.3562 7.87481 11.0312L5.46231 12.1062C5.36855 12.7 5.3123 13.9313 5.6623 14.3875L3.83731 16.3125C3.36231 15.9937 2.1373 16.1125 1.55605 16.2437L0.612305 18.7063C0.956055 19.2 1.79356 20.0938 2.35606 20.175L2.43106 22.8312C1.87481 22.9438 1.09355 23.8875 0.768555 24.3937L1.8498 26.8062C2.4373 26.9 3.66856 26.95 4.12481 26.6125L6.04981 28.4312C5.73106 28.9 5.8498 30.1313 5.98105 30.7125L8.44355 31.6562C8.93106 31.3062 9.83731 30.4688 9.91231 29.9062L12.5686 29.8312C12.6811 30.4 13.6248 31.175 14.1373 31.4937L16.5436 30.425C16.6436 29.825 16.6873 28.6 16.3498 28.1437L18.1686 26.2125C18.6436 26.5375 19.8686 26.4187 20.4561 26.2875L21.3936 23.8187C21.0436 23.3375 20.2123 22.4375 19.6436 22.3562ZM13.8186 22.3375C13.6059 22.895 13.2328 23.3769 12.7463 23.7224C12.2598 24.0678 11.6817 24.2612 11.0853 24.2781C10.4889 24.295 9.90082 24.1347 9.3955 23.8174C8.89019 23.5001 8.49031 23.0401 8.24644 22.4955C8.00257 21.951 7.92566 21.3463 8.02543 20.7581C8.1252 20.1698 8.39717 19.6243 8.80695 19.1906C9.21674 18.7569 9.74592 18.4545 10.3276 18.3215C10.9093 18.1886 11.5173 18.2311 12.0748 18.4437C12.4453 18.5844 12.7844 18.7969 13.0727 19.0689C13.361 19.3408 13.5927 19.667 13.7547 20.0288C13.9167 20.3905 14.0057 20.7806 14.0167 21.1768C14.0276 21.5729 13.9603 21.9674 13.8186 22.3375ZM29.3748 5.1625C29.0811 4.91875 28.3873 4.4875 28.0436 4.6L26.9873 2.8C27.2498 2.55625 27.2123 1.7375 27.1436 1.36875L25.3373 0.34375C24.9811 0.475 24.2623 0.8625 24.1873 1.2125L22.0998 1.23125C22.0186 0.88125 21.2936 0.50625 20.9373 0.375L19.1498 1.43125C19.0873 1.8 19.0623 2.61875 19.3248 2.8625L18.2998 4.675C17.9498 4.56875 17.2623 5.0125 16.9748 5.25625L16.9936 7.33125C17.2873 7.575 17.9811 8 18.3248 7.89375L19.3811 9.69375C19.1186 9.9375 19.1561 10.7563 19.2248 11.125L21.0311 12.15C21.3811 12.0187 22.0998 11.6313 22.1811 11.2812L24.2623 11.2625C24.3498 11.6125 25.0748 11.9875 25.4311 12.1187L27.2186 11.0625C27.2811 10.6875 27.3061 9.875 27.0373 9.63125L28.0686 7.81875C28.4123 7.91875 29.0998 7.48125 29.3873 7.2375L29.3748 5.1625ZM23.1811 7.88125C22.8581 7.88063 22.5425 7.78433 22.2742 7.60451C22.0059 7.42468 21.7969 7.1694 21.6736 6.87088C21.5503 6.57237 21.5182 6.24401 21.5814 5.92726C21.6445 5.61051 21.8001 5.31958 22.0285 5.0912C22.2569 4.86282 22.5478 4.70722 22.8646 4.64406C23.1813 4.5809 23.5097 4.613 23.8082 4.73631C24.1067 4.85963 24.362 5.06863 24.5418 5.33692C24.7216 5.60521 24.8179 5.92077 24.8186 6.24375C24.819 6.45893 24.777 6.67209 24.6949 6.87098C24.6128 7.06987 24.4922 7.25059 24.34 7.40274C24.1879 7.55489 24.0072 7.67549 23.8083 7.75761C23.6094 7.83973 23.3962 7.88174 23.1811 7.88125Z" fill="#2E2E2E"/>
</svg>
