<svg width="56" height="57" viewBox="0 0 56 57" fill="none" xmlns="http://www.w3.org/2000/svg">
<g clip-path="url(#clip0_0_87)">
<path d="M37.5667 37.5417H18.6084V50.4917H37.5667V37.5417Z" fill="#A6C44A"/>
<path d="M42.5835 12.1667C42.3502 12.1667 42.0585 12.1667 41.8252 12.225C40.0169 6.39167 34.1835 2.13334 27.2419 2.13334C21.1169 2.13334 15.8085 5.45834 13.4169 10.3C6.76686 11 1.5752 16.1917 1.5752 22.55C1.5752 29.375 7.64186 34.975 15.0502 34.975C19.4835 34.975 23.4502 32.9917 25.9002 29.9583C26.3085 30.0167 26.7752 30.0167 27.2419 30.0167C29.1669 30.0167 31.0335 29.6667 32.7835 29.025C34.8835 31.9417 38.5002 33.8667 42.6419 33.8667C49.1752 33.8667 54.4835 29.025 54.4835 23.0167C54.4835 17.0083 49.1169 12.1667 42.5835 12.1667Z" fill="#F8B602"/>
<path d="M15.1085 36.0833C7.00013 36.0833 0.466797 30.0167 0.466797 22.55C0.466797 15.9 5.7168 10.2417 12.7168 9.19167C15.4585 4.17501 21.1168 0.966675 27.2418 0.966675C34.1835 0.966675 40.3668 5.05001 42.6418 11.0583C49.7585 11.0583 55.5918 16.425 55.5918 23.075C55.5918 29.6667 49.7585 35.0917 42.6418 35.0917C38.6168 35.0917 34.8251 33.3417 32.3751 30.425C30.6835 30.95 28.9918 31.1833 27.2418 31.1833C26.9501 31.1833 26.6585 31.1833 26.4251 31.1833C23.6251 34.275 19.5418 36.0833 15.1085 36.0833ZM27.2418 3.24167C21.7585 3.24167 16.7418 6.21668 14.4668 10.7667L14.1751 11.35L13.5335 11.4083C7.40846 12.1083 2.7418 16.8917 2.7418 22.55C2.7418 28.7333 8.28346 33.8083 15.1085 33.8083C19.0751 33.8083 22.6918 32.1167 25.0251 29.2L25.4335 28.7333L26.0168 28.7917C26.3668 28.7917 26.7751 28.85 27.2418 28.85C28.9918 28.85 30.7418 28.5583 32.3751 27.975L33.1918 27.6833L33.7168 28.3833C35.7001 31.125 39.0251 32.7583 42.6418 32.7583C48.5335 32.7583 53.3168 28.3833 53.3168 23.075C53.3168 17.7667 48.4751 13.3333 42.5835 13.3333C42.4085 13.3333 42.2335 13.3333 42.0585 13.3333L41.0085 13.3917L40.7168 12.5167C39.0251 7.09168 33.4835 3.24167 27.2418 3.24167Z" fill="#2E2E2E"/>
<path d="M42.35 56.0333H13.65L7.9917 31.9417L10.0334 32.8167C11.6667 33.4583 13.3584 33.8083 15.1084 33.8083C19.075 33.8083 22.6917 32.1167 25.025 29.2L25.4334 28.7333L26.0167 28.7917C26.3667 28.7917 26.775 28.85 27.2417 28.85C28.9917 28.85 30.7417 28.5583 32.375 27.975L33.1917 27.6833L33.7167 28.3833C35.7 31.125 39.025 32.7583 42.6417 32.7583C43.8667 32.7583 45.0917 32.5833 46.2584 32.175L48.1834 31.5333L42.35 56.0333ZM15.4584 53.7583H40.6L45.0917 34.8C44.275 34.9167 43.4584 35.0333 42.6417 35.0333C38.6167 35.0333 34.825 33.2833 32.375 30.3667C30.6834 30.8917 28.9917 31.125 27.2417 31.125C26.95 31.125 26.6584 31.125 26.425 31.125C23.625 34.275 19.5417 36.0833 15.1084 36.0833C13.7667 36.0833 12.425 35.9083 11.2 35.6167L15.4584 53.7583Z" fill="#2E2E2E"/>
<path d="M23.5665 39.9333H21.2915V47.575H23.5665V39.9333Z" fill="#2E2E2E"/>
<path d="M29.2252 39.9333H26.9502V47.575H29.2252V39.9333Z" fill="#2E2E2E"/>
<path d="M34.8248 39.9333H32.5498V47.575H34.8248V39.9333Z" fill="#2E2E2E"/>
<path d="M13.562 28.34L11.7329 26.6235L10.1761 28.2825L12.0052 29.9989L13.562 28.34Z" fill="#2E2E2E"/>
<path d="M15.3774 18.1128L13.5483 16.3963L11.9915 18.0552L13.8206 19.7717L15.3774 18.1128Z" fill="#2E2E2E"/>
<path d="M44.6506 18.9808L42.8218 17.2641L41.2648 18.9228L43.0936 20.6395L44.6506 18.9808Z" fill="#2E2E2E"/>
<path d="M35.3828 21.2482L33.5537 19.5317L31.9969 21.1906L33.826 22.9071L35.3828 21.2482Z" fill="#2E2E2E"/>
<path d="M47.3569 27.4415L45.5278 25.725L43.971 27.3839L45.8001 29.1004L47.3569 27.4415Z" fill="#2E2E2E"/>
<path d="M24.1421 22.9562L22.313 21.2397L20.7562 22.8987L22.5853 24.6151L24.1421 22.9562Z" fill="#2E2E2E"/>
<path d="M25.8271 12.9652L23.998 11.2487L22.4413 12.9076L24.2703 14.6241L25.8271 12.9652Z" fill="#2E2E2E"/>
<path d="M34.4961 10.1941L32.667 8.47767L31.1102 10.1366L32.9393 11.8531L34.4961 10.1941Z" fill="#2E2E2E"/>
</g>
<defs>
<clipPath id="clip0_0_87">
<rect width="56" height="56" fill="white" transform="translate(0 0.5)"/>
</clipPath>
</defs>
</svg>
