<svg width="56" height="57" viewBox="0 0 56 57" fill="none" xmlns="http://www.w3.org/2000/svg">
<path d="M55.7082 25.4083H0.291504V24.2417C0.291504 13.7417 12.1332 1.95834 27.9998 1.95834C43.8665 1.95834 55.7082 13.7417 55.7082 24.2417V25.4083ZM2.68317 23.075H53.3748C52.4998 13.975 41.9415 4.23334 27.9998 4.23334C14.0582 4.23334 3.49984 13.975 2.68317 23.075Z" fill="#2E2E2E"/>
<path d="M9.10016 18.4667C12.3668 13.3333 19.6002 8.9 28.0002 8.9C36.4002 8.9 43.5752 13.3333 46.9002 18.4667H9.10016ZM52.3252 53.875H3.67516C2.45016 53.875 1.4585 52.8833 1.4585 51.6583V44.1917H54.5418V51.6583C54.5418 52.8833 53.5502 53.875 52.3252 53.875Z" fill="#A6C44A"/>
<path d="M52.3248 55.0417H3.67484C1.80817 55.0417 0.291504 53.525 0.291504 51.6583V43.0833H55.7082V51.7167C55.7082 53.525 54.1915 55.0417 52.3248 55.0417ZM2.62484 45.3583V51.6583C2.62484 52.2417 3.0915 52.7083 3.67484 52.7083H52.3832C52.9665 52.7083 53.4332 52.2417 53.4332 51.6583V45.3583H2.62484Z" fill="#2E2E2E"/>
<path d="M49.5252 39.175H6.47516C3.67516 39.175 1.4585 36.9 1.4585 34.1583C1.4585 31.3583 3.7335 29.1417 6.47516 29.1417H49.5252C52.3252 29.1417 54.5418 31.4167 54.5418 34.1583C54.5418 36.9583 52.3252 39.175 49.5252 39.175Z" fill="#F8B602"/>
<path d="M49.5248 40.3417H6.47484C3.03317 40.3417 0.291504 37.5417 0.291504 34.1583C0.291504 30.775 3.0915 27.975 6.47484 27.975H49.5248C52.9665 27.975 55.7082 30.775 55.7082 34.1583C55.7082 37.5417 52.9082 40.3417 49.5248 40.3417ZM6.47484 30.25C4.3165 30.25 2.5665 32 2.5665 34.1583C2.5665 36.3167 4.3165 38.0667 6.47484 38.0667H49.5248C51.6832 38.0667 53.4332 36.3167 53.4332 34.1583C53.4332 32 51.6832 30.25 49.5248 30.25H6.47484Z" fill="#F8B602"/>
<path d="M30.7999 36.3167C29.6916 36.3167 28.6999 35.9083 27.7666 35.5583C27.0082 35.2667 26.3082 34.975 25.6666 34.975C24.9082 34.9167 24.0332 35.2083 23.1582 35.4417C21.8166 35.85 20.2999 36.3167 18.7832 35.7917C18.3166 35.6167 17.9082 35.3833 17.5582 35.2083C17.3249 35.0917 17.0916 34.9167 16.8582 34.8583C15.7499 34.3917 14.4082 34.6833 12.9499 35.0333L12.5416 35.15C10.8499 35.5 8.3999 35.85 6.6499 34.3333L8.16657 32.5833C8.9249 33.225 10.1499 33.3417 12.0749 32.9333L12.4832 32.8167C14.1166 32.4667 15.9832 32.0583 17.7916 32.7583C18.1416 32.9333 18.4332 33.1083 18.7832 33.225C19.0749 33.4 19.3666 33.575 19.5999 33.6333C20.4166 33.925 21.4082 33.6333 22.5749 33.2833C23.6249 32.9917 24.6749 32.6417 25.8999 32.7C26.9499 32.7583 27.8249 33.1083 28.6999 33.4583C29.6332 33.8083 30.5082 34.1583 31.2666 34.0417C31.5582 33.9833 31.9082 33.8667 32.3166 33.6917C32.4916 33.6333 32.6082 33.575 32.7832 33.5167C34.5332 32.8167 36.5749 32.6417 38.4416 33.05C38.7332 33.1083 39.0832 33.1667 39.3749 33.2833C39.9582 33.4583 40.5416 33.575 41.0666 33.575C41.8249 33.575 42.6416 33.225 43.4582 32.9333C43.8082 32.8167 44.1582 32.6417 44.5082 32.525C46.4916 31.825 48.2416 32 49.4082 32.9917L47.8916 34.7417C47.1332 34.1 45.7916 34.5083 45.2082 34.6833C44.9166 34.8 44.5666 34.9167 44.2749 35.0333C43.2832 35.4417 42.2332 35.85 41.0082 35.85C41.0082 35.85 41.0082 35.85 40.9499 35.85C40.1332 35.85 39.3749 35.675 38.6749 35.5C38.3832 35.4417 38.1499 35.3833 37.8582 35.325C36.3999 35.0333 34.8832 35.15 33.5416 35.675C33.4249 35.7333 33.2499 35.7917 33.1332 35.85C32.6666 36.025 32.1999 36.2583 31.6166 36.3167C31.3249 36.2583 31.0916 36.3167 30.7999 36.3167Z" fill="#2E2E2E"/>
<path d="M9.11751 19.0612L7.76416 17.1605L6.00596 18.4123L7.35931 20.3131L9.11751 19.0612Z" fill="#2E2E2E"/>
<path d="M40.0943 11.8803L38.7407 9.97975L36.9827 11.2318L38.3363 13.1324L40.0943 11.8803Z" fill="#2E2E2E"/>
<path d="M34.5033 9.53799L33.1499 7.63723L31.3917 8.88908L32.745 10.7898L34.5033 9.53799Z" fill="#2E2E2E"/>
<path d="M13.4825 14.6626L11.9263 12.9241L10.8832 13.8578L12.4394 15.5964L13.4825 14.6626Z" fill="#2E2E2E"/>
<path d="M21.0214 10.9073L20.1235 8.75365L18.4544 9.44948L19.3523 11.6032L21.0214 10.9073Z" fill="#2E2E2E"/>
<path d="M15.4573 20.0792L14.4673 17.9663L13.2524 18.5355L14.2424 20.6484L15.4573 20.0792Z" fill="#2E2E2E"/>
<path d="M26.6585 9.71666L25.2002 7.90833C25.9002 7.32499 26.7752 6.91666 27.6502 6.74166L28.1752 8.95833C27.5918 9.13333 27.0668 9.36666 26.6585 9.71666ZM17.7918 16.5417L17.2085 14.325C17.7335 14.2083 18.2585 13.975 18.7252 13.7417L19.7752 15.7833C19.1335 16.075 18.4918 16.3083 17.7918 16.5417Z" fill="#2E2E2E"/>
<path d="M30.8661 19.6824L30.1245 17.4701L28.1887 18.1189L28.9303 20.3313L30.8661 19.6824Z" fill="#2E2E2E"/>
<path d="M42.6122 20.4088L41.8706 18.1964L39.9348 18.8453L40.6764 21.0577L42.6122 20.4088Z" fill="#2E2E2E"/>
<path d="M35.6417 20.8583L34.7084 18.7583C35.2917 18.525 35.8751 18.2917 36.4584 18.175L36.9251 20.45C36.4584 20.5667 35.9917 20.6833 35.6417 20.8583ZM32.6667 16.3667L31.7334 14.2667C32.3167 14.0333 32.9001 13.8583 33.4834 13.6833L33.9501 15.9583C33.4834 16.0167 33.0751 16.1917 32.6667 16.3667Z" fill="#2E2E2E"/>
<path d="M26.9311 14.8917L26.187 12.6802L24.8601 13.1267L25.6042 15.3382L26.9311 14.8917Z" fill="#2E2E2E"/>
<path d="M16.0244 12.0402L15.2793 9.829L13.9526 10.2761L14.6977 12.4872L16.0244 12.0402Z" fill="#2E2E2E"/>
<path d="M24.0146 20.5081L23.2695 18.2969L21.9428 18.744L22.6879 20.9551L24.0146 20.5081Z" fill="#2E2E2E"/>
<path d="M48.1249 18.756L47.3809 16.5445L46.054 16.9909L46.798 19.2025L48.1249 18.756Z" fill="#2E2E2E"/>
<path d="M43.9296 16.2154L43.1855 14.0039L41.8586 14.4503L42.6027 16.6618L43.9296 16.2154Z" fill="#2E2E2E"/>
</svg>
