<svg width="56" height="57" viewBox="0 0 56 57" fill="none" xmlns="http://www.w3.org/2000/svg">
<path d="M14.4085 55.625C9.97515 55.625 5.54182 54.05 2.80015 50.4917C0.408485 47.4 -0.291515 43.2583 0.700152 38.7667C1.63348 34.6833 3.96682 30.8333 7.00015 28.5583C11.9585 24.7667 35.0585 13.2167 41.1835 21.2083C43.8085 24.7083 42.5251 30.6 37.4501 38.2417C33.4835 44.1917 28.1168 49.9083 25.0835 52.1833C22.2252 54.4 18.3168 55.625 14.4085 55.625ZM34.0085 20.6833C26.0751 20.6833 12.8918 26.9833 8.40015 30.3667C5.83348 32.35 3.79182 35.675 2.97515 39.2333C2.10015 43.025 2.74182 46.525 4.66682 49.0917C8.92515 54.6333 18.4918 54.3417 23.6835 50.4333C26.6001 48.2167 31.8502 42.5583 35.5252 37.0167C39.9585 30.3083 41.3002 25.2333 39.3168 22.6083C38.2668 21.2667 36.3418 20.6833 34.0085 20.6833Z" fill="#2E2E2E"/>
<path d="M14.4667 49.85C11.375 49.85 8.80837 48.8 7.40837 46.9917C6.12504 45.3 5.71671 42.7333 6.35837 40.05C6.94171 37.25 8.51671 34.625 10.5 33.1667C14.6417 30.0167 27.0667 24.1833 34.0084 24.1833C35.8167 24.1833 36.5167 24.5917 36.6334 24.7083C36.9834 25.1167 37.275 28.15 32.6667 35.0917C28.8167 40.8083 23.7417 46 21.525 47.6917C19.775 49.0333 17.0917 49.85 14.4667 49.85Z" fill="#F8B602"/>
<path d="M53.7251 16.8333C53.2584 16.1917 52.6751 15.725 52.0334 15.375C50.8084 14.7333 49.8751 13.5667 49.6417 12.225C49.4667 11.525 49.1751 10.825 48.7084 10.2417C47.2501 8.43333 44.2751 8.025 42.3501 9.36667C40.1917 10.8833 39.7251 13.9167 41.3001 16.0167C41.7084 16.5417 41.6501 17.3 41.1251 17.65L37.8584 20.1583C38.7917 20.5667 39.6084 21.0917 40.1917 21.9083C40.7751 22.6667 41.1251 23.6 41.2417 24.5917L44.5084 22.0833C45.0334 21.675 45.7334 21.7917 46.1417 22.3167C47.7751 24.4167 50.8084 24.7667 52.8501 23.075C54.7167 21.675 55.0667 18.7 53.7251 16.8333Z" fill="#A6C44A"/>
<path d="M40.3668 26.75L40.1335 24.7667C40.0168 23.8917 39.7835 23.1917 39.3168 22.6083C38.8502 22.025 38.2668 21.5583 37.4502 21.2667L35.5835 20.5083L40.4835 16.775L40.4252 16.7167C39.4335 15.4333 39.0252 13.8583 39.3168 12.2833C39.5502 10.7083 40.4252 9.30833 41.7085 8.375C44.1002 6.68333 47.7168 7.15 49.5835 9.48333C50.1668 10.2417 50.5752 11.0583 50.7502 11.9333C50.9835 12.9833 51.6252 13.8583 52.5585 14.325C53.3752 14.7333 54.0752 15.375 54.6585 16.1333C56.4085 18.525 55.8835 22.1417 53.6085 24.0083C52.3835 25.0583 50.8085 25.4667 49.2335 25.2917C47.6585 25.1167 46.2585 24.3 45.2668 23.0167L45.2085 22.9583L40.3668 26.75ZM45.2085 20.7417C45.3252 20.7417 45.4418 20.7417 45.5002 20.7417C46.1418 20.8 46.6668 21.15 47.0752 21.675C47.6585 22.4333 48.5335 22.9583 49.4668 23.075C50.4585 23.1917 51.3918 22.9 52.1502 22.2583C53.4918 21.15 53.7835 18.875 52.7918 17.475C52.4418 17.0083 52.0335 16.6583 51.5668 16.3667C49.9918 15.55 48.8835 14.15 48.5335 12.4C48.4168 11.875 48.1835 11.35 47.8335 10.8833C46.7252 9.54166 44.4502 9.25 43.0502 10.2417C42.2335 10.825 41.7085 11.6417 41.5918 12.575C41.4168 13.5083 41.7085 14.5 42.2918 15.2583C42.7002 15.7833 42.8752 16.3667 42.7585 17.0083C42.7002 17.5917 42.3502 18.175 41.8835 18.525L40.0168 19.9833C40.4835 20.3333 40.8335 20.6833 41.1835 21.15C41.5335 21.6167 41.7668 22.0833 42.0002 22.6083L43.8668 21.15C44.2752 20.9167 44.7418 20.7417 45.2085 20.7417Z" fill="#2E2E2E"/>
<path d="M7.90415 37.1416L6.22754 36.9164L5.91692 39.229L7.59353 39.4542L7.90415 37.1416Z" fill="#2E2E2E"/>
<path d="M20.3851 37.4901L18.7085 37.2649L18.3979 39.5775L20.0745 39.8027L20.3851 37.4901Z" fill="#2E2E2E"/>
<path d="M31.765 34.8619L30.0884 34.6367L29.7778 36.9493L31.4544 37.1745L31.765 34.8619Z" fill="#2E2E2E"/>
<path d="M14.9022 48.0451L13.2256 47.8199L12.915 50.1325L14.5916 50.3577L14.9022 48.0451Z" fill="#2E2E2E"/>
<path d="M18.9256 30.838L17.249 30.6129L16.9384 32.9254L18.615 33.1506L18.9256 30.838Z" fill="#2E2E2E"/>
<path d="M30.7142 25.2949L29.0376 25.0697L28.727 27.3823L30.4036 27.6075L30.7142 25.2949Z" fill="#2E2E2E"/>
<path d="M15.6331 1.375H13.2998V8.60833H15.6331V1.375Z" fill="#2E2E2E"/>
<path d="M8.74984 11.4667H6.4165V18.7H8.74984V11.4667Z" fill="#2E2E2E"/>
<path d="M22.575 9.19167H20.2417V16.425H22.575V9.19167Z" fill="#2E2E2E"/>
</svg>
