<svg width="56" height="57" viewBox="0 0 56 57" fill="none" xmlns="http://www.w3.org/2000/svg">
<g clip-path="url(#clip0_0_132)">
<path d="M11.4915 49.9667C10.9082 49.4417 10.3249 48.8 9.79987 48.2167L11.5499 46.7C12.0165 47.225 12.5415 47.8083 13.0665 48.275L11.4915 49.9667ZM7.64154 45.3C7.2332 44.6 6.82487 43.9 6.41654 43.2L8.4582 42.15C8.8082 42.7917 9.1582 43.4333 9.56654 44.075L7.64154 45.3ZM5.07487 39.8167C4.84154 39.0583 4.6082 38.2417 4.4332 37.4833L6.7082 37.0167C6.8832 37.7167 7.0582 38.4167 7.29154 39.1167L5.07487 39.8167ZM3.96654 33.8667C3.9082 33.3417 3.9082 32.875 3.9082 32.35C3.9082 32.0583 3.9082 31.7667 3.9082 31.4167L6.24154 31.5333C6.24154 31.825 6.24154 32.0583 6.24154 32.35C6.24154 32.8167 6.24154 33.2833 6.29987 33.6917L3.96654 33.8667ZM6.59154 28.2667L4.31654 27.8583C4.49154 27.0417 4.66654 26.2833 4.89987 25.525L7.11654 26.1667C6.8832 26.8667 6.7082 27.5667 6.59154 28.2667ZM8.2832 23.075L6.1832 22.0833C6.5332 21.3833 6.8832 20.625 7.34987 19.925L9.3332 21.0917C8.92487 21.7917 8.57487 22.4333 8.2832 23.075ZM45.3832 49.0917L43.7499 47.4583C44.2749 46.9333 44.7415 46.35 45.2082 45.825L47.0165 47.225C46.4915 47.8667 45.9665 48.5083 45.3832 49.0917ZM48.9999 44.1917L47.0165 43.0833C47.3665 42.4417 47.7165 41.8 48.0082 41.1L50.1082 42.0333C49.7582 42.7917 49.4082 43.4917 48.9999 44.1917ZM51.2749 38.65L49.0582 38.0667C49.2332 37.3667 49.4082 36.6667 49.5249 35.9083L51.7999 36.2583C51.6832 37.0167 51.5082 37.8333 51.2749 38.65ZM52.0915 32.6417H49.7582V32.4083C49.7582 31.7667 49.6999 31.0667 49.6415 30.425L51.9165 30.1917C51.9749 30.8917 52.0332 31.65 52.0332 32.35L52.0915 32.6417ZM49.1749 27.1583C48.9999 26.4583 48.7665 25.7583 48.5332 25.0583L50.6915 24.3C50.9832 25.0583 51.2165 25.8167 51.3915 26.6333L49.1749 27.1583ZM47.1915 22.0833C46.8415 21.4417 46.4915 20.8 46.0832 20.2167L48.0082 18.9333C48.4749 19.575 48.8832 20.275 49.2915 21.0333L47.1915 22.0833Z" fill="#2E2E2E"/>
<path d="M12.8917 1.95834H43.1084L47.0167 9.71667H8.9834L12.8917 1.95834Z" fill="#A6C44A"/>
<path d="M48.9417 10.8833H7.1167L12.1917 0.791664H43.8667L48.9417 10.8833ZM10.85 8.55H45.2084L42.4667 3.06666H13.65L10.85 8.55Z" fill="#2E2E2E"/>
<path d="M16.7999 55.0417H39.1999L40.5999 44.0167H15.3999L16.7999 55.0417Z" fill="white"/>
<path d="M40.25 56.2083H15.75L14.1167 42.85H41.9417L40.25 56.2083ZM17.7917 53.875H38.2084L39.3167 45.125H16.6834L17.7917 53.875Z" fill="#2E2E2E"/>
<path d="M44.8583 9.71667H11.1416L12.4833 20.7417H43.5166L44.8583 9.71667Z" fill="white"/>
<path d="M44.5084 21.9083H11.4917L9.8584 8.55H46.2001L44.5084 21.9083ZM13.5334 19.575H42.4667L43.5751 10.825H12.4251L13.5334 19.575Z" fill="#2E2E2E"/>
<path d="M12.4834 20.7417L15.4001 44.0167H40.6001L43.5167 20.7417H12.4834Z" fill="#F8B602"/>
<path d="M41.5919 45.1833H14.4085L11.2002 19.6333H44.8002L41.5919 45.1833ZM16.3919 42.85H39.5502L42.1752 21.9083H13.8252L16.3919 42.85Z" fill="#F8B602"/>
<path d="M27.9999 40.3417C31.5115 40.3417 34.3583 36.7898 34.3583 32.4083C34.3583 28.0269 31.5115 24.475 27.9999 24.475C24.4883 24.475 21.6416 28.0269 21.6416 32.4083C21.6416 36.7898 24.4883 40.3417 27.9999 40.3417Z" fill="white"/>
<path d="M28.0001 41.45C23.8584 41.45 20.4751 37.3667 20.4751 32.35C20.4751 27.3333 23.8584 23.3083 28.0001 23.3083C32.1418 23.3083 35.5251 27.3917 35.5251 32.4083C35.5251 37.425 32.1418 41.45 28.0001 41.45ZM28.0001 25.5833C25.1418 25.5833 22.8084 28.6167 22.8084 32.35C22.8084 36.0833 25.1418 39.1167 28.0001 39.1167C30.8584 39.1167 33.1918 36.0833 33.1918 32.35C33.1918 28.6167 30.8584 25.5833 28.0001 25.5833Z" fill="#2E2E2E"/>
<path d="M27.4751 40.575C26.8334 38.9417 26.7751 37.1917 27.2418 35.5C27.3584 35.0917 27.5334 34.6833 27.6501 34.3333C27.8251 33.8083 28.0001 33.3417 28.1168 32.9333C28.2334 32.175 28.1168 31.3 27.7668 30.425C27.4168 29.55 26.8334 28.675 26.2501 27.8583C25.9001 27.3917 25.6084 26.8667 25.3751 26.2833C25.0834 25.4667 25.0251 24.65 25.3168 23.95L27.4751 24.825C27.4168 25 27.4168 25.2333 27.5334 25.4667C27.6501 25.8167 27.8834 26.1667 28.1751 26.5167C28.8168 27.45 29.4584 28.4417 29.9251 29.55C30.4501 30.8333 30.6251 32.175 30.4501 33.3417C30.3334 34.0417 30.1001 34.625 29.8668 35.2083C29.7501 35.5583 29.6334 35.85 29.5168 36.2C29.1668 37.3667 29.2251 38.65 29.6918 39.7583L27.4751 40.575Z" fill="#2E2E2E"/>
</g>
<defs>
<clipPath id="clip0_0_132">
<rect width="56" height="56" fill="white" transform="translate(0 0.5)"/>
</clipPath>
</defs>
</svg>
