<svg width="56" height="57" viewBox="0 0 56 57" fill="none" xmlns="http://www.w3.org/2000/svg">
<g clip-path="url(#clip0_0_167)">
<path d="M31.7334 49.325C22.4001 53.4083 11.4917 49.15 7.40839 39.8167C3.32505 30.4833 7.58339 19.575 16.9167 15.4917C21.5834 13.45 26.6584 13.5083 31.0334 15.2L32.9584 10.2417C27.3001 8.025 20.7667 7.96667 14.7584 10.5917C2.74172 15.8417 -2.74161 29.9 2.50839 41.9167C7.75839 53.9333 21.8167 59.4167 33.8334 54.1667C45.8501 48.9167 51.3334 34.8583 46.0834 22.8417L41.2417 25C45.3251 34.3333 41.0667 45.2417 31.7334 49.325Z" fill="#F8B602"/>
<path d="M38.8501 7.26667C43.2834 8.95833 47.0168 12.4 49.0584 17.0667L53.9001 14.9083C51.2751 8.9 46.4918 4.525 40.7751 2.30833L38.8501 7.26667Z" fill="#A6C44A"/>
<path d="M48.4752 18.5833L48.0085 17.5333C46.1418 13.275 42.7585 10.0667 38.4418 8.375L37.3335 7.90833L40.1335 0.791664L41.2418 1.2C47.4252 3.65 52.3252 8.31666 55.0085 14.4417L55.4752 15.4917L48.4752 18.5833ZM40.3668 6.625C44.3918 8.49166 47.6002 11.5833 49.6418 15.55L52.3835 14.3833C50.0502 9.71666 46.2585 6.04166 41.4752 3.88333L40.3668 6.625Z" fill="#2E2E2E"/>
<path d="M49.0583 17.0667C47.0166 12.4 43.2833 9.01666 38.8499 7.26666L32.1416 24.475L49.0583 17.0667Z" fill="#F8B602"/>
<path d="M30.0415 26.6917L38.2082 5.75L39.3165 6.15833C44.2165 8.08333 48.0665 11.7583 50.1665 16.6L50.6332 17.65L30.0415 26.6917ZM39.4915 8.78333L34.2415 22.2583L47.4832 16.4833C45.7332 13.1 42.9332 10.4167 39.4915 8.78333Z" fill="#2E2E2E"/>
<path d="M24.3249 52.0667C16.7415 52.0667 9.50821 47.6917 6.29988 40.2833C1.92488 30.3667 6.47488 18.7583 16.3915 14.3833C21.1749 12.2833 26.5415 12.1667 31.4415 14.0917L32.5499 14.5L26.4249 30.1917L41.8249 23.425L42.2915 24.475C44.3915 29.2583 44.5082 34.625 42.5832 39.525C40.6582 44.425 36.9832 48.275 32.1415 50.375C29.6332 51.5417 27.0082 52.0667 24.3249 52.0667ZM8.45821 39.35C12.3082 48.1 22.5165 52.0667 31.2665 48.275C35.5249 46.4083 38.7332 43.025 40.4249 38.7083C41.9415 34.7417 41.9999 30.4833 40.5999 26.575L22.2249 34.625L29.5165 15.9C25.5499 14.6167 21.2332 14.85 17.3832 16.5417C8.63321 20.3917 4.66654 30.6 8.45821 39.35Z" fill="#2E2E2E"/>
<path d="M17.9084 45.0083C19.5192 45.0083 20.825 43.7025 20.825 42.0917C20.825 40.4808 19.5192 39.175 17.9084 39.175C16.2975 39.175 14.9917 40.4808 14.9917 42.0917C14.9917 43.7025 16.2975 45.0083 17.9084 45.0083Z" fill="#A6C44A"/>
<path d="M17.9081 46.175C16.3331 46.175 14.8164 45.2417 14.1164 43.725C13.6498 42.7333 13.6498 41.625 14.0581 40.575C14.4664 39.525 15.2248 38.7667 16.2164 38.3C17.2081 37.8333 18.3164 37.8333 19.3664 38.2417C20.4164 38.65 21.1748 39.4083 21.6414 40.4C22.1081 41.3917 22.1081 42.5 21.6998 43.55C21.2914 44.6 20.5331 45.3583 19.5414 45.825C19.0164 46.0583 18.4331 46.175 17.9081 46.175ZM17.9081 40.2833C17.6748 40.2833 17.4414 40.3417 17.2081 40.4583C16.7998 40.6333 16.4498 40.9833 16.2748 41.45C16.0998 41.9167 16.0998 42.3833 16.2748 42.7917C16.6831 43.6667 17.7331 44.075 18.6081 43.725C19.0164 43.55 19.3664 43.2 19.5414 42.7333C19.7164 42.2667 19.7164 41.8 19.5414 41.3917C19.3664 40.9833 19.0164 40.6333 18.5498 40.4583C18.3164 40.3417 18.0831 40.2833 17.9081 40.2833Z" fill="#A6C44A"/>
<path d="M15.9832 26.6333C17.4007 26.6333 18.5498 25.4842 18.5498 24.0667C18.5498 22.6491 17.4007 21.5 15.9832 21.5C14.5656 21.5 13.4165 22.6491 13.4165 24.0667C13.4165 25.4842 14.5656 26.6333 15.9832 26.6333Z" fill="#A6C44A"/>
<path d="M15.9834 27.8C15.5168 27.8 15.0501 27.7417 14.6418 27.5667C13.7084 27.2167 13.0084 26.5167 12.6001 25.5833C12.1918 24.65 12.1918 23.6583 12.5418 22.725C12.8918 21.7917 13.5918 21.0917 14.5251 20.6833C16.3918 19.8667 18.6084 20.7417 19.4251 22.6083C20.2418 24.475 19.3668 26.6917 17.5001 27.5083C17.0334 27.6833 16.5084 27.8 15.9834 27.8ZM15.9834 22.725C15.8084 22.725 15.6334 22.7833 15.4584 22.8417C15.1084 23.0167 14.8751 23.25 14.7001 23.6C14.5834 23.95 14.5834 24.3 14.7001 24.65C14.8168 25 15.1084 25.2333 15.4584 25.4083C15.8084 25.525 16.1584 25.525 16.5084 25.4083C17.2084 25.1167 17.5001 24.3 17.2084 23.6C17.0334 23.0167 16.5084 22.725 15.9834 22.725Z" fill="#A6C44A"/>
<path d="M32.9585 44.3667C32.4919 44.3667 32.0835 44.3083 31.6169 44.1333C30.6835 43.7833 29.9835 43.0833 29.5752 42.2083L31.7335 41.275C31.8502 41.625 32.1419 41.8583 32.4335 41.975C32.7835 42.0917 33.1335 42.0917 33.4252 41.975C34.0669 41.6833 34.4169 40.925 34.1252 40.225L36.2835 39.2917C37.1002 41.1583 36.2252 43.3167 34.4169 44.1333C33.9502 44.3083 33.4835 44.3667 32.9585 44.3667ZM40.5419 18.1167C39.1419 18.1167 37.8002 17.3 37.1585 15.9L39.3169 14.9667C39.6085 15.6083 40.3669 15.9583 41.0669 15.6667C41.7085 15.375 42.0585 14.6167 41.7669 13.9167L43.9252 12.9833C44.7419 14.85 43.8669 17.0083 42.0585 17.825C41.5335 18.0583 41.0669 18.1167 40.5419 18.1167Z" fill="#2E2E2E"/>
<path d="M10.8685 33.9204L8.5459 33.6975L8.37867 35.4394L10.7013 35.6624L10.8685 33.9204Z" fill="#2E2E2E"/>
<path d="M13.5333 38.7083L11.2583 38.2417C11.375 37.6 11.6666 36.9583 12.075 36.4333L13.9416 37.8333C13.7083 38.125 13.5916 38.4167 13.5333 38.7083ZM16.45 33.575L14.525 32.2333C14.8166 31.7667 15.225 31.4167 15.6916 31.0667L17.0333 32.9917C16.8 33.1083 16.625 33.3417 16.45 33.575Z" fill="#2E2E2E"/>
<path d="M23.1211 27.3707L21.0127 26.3711L20.4879 27.478L22.5963 28.4776L23.1211 27.3707Z" fill="#2E2E2E"/>
<path d="M42.0448 11.4372L39.9351 10.4405L39.4118 11.5481L41.5215 12.5448L42.0448 11.4372Z" fill="#2E2E2E"/>
<path d="M26.0169 21.2667L23.6835 20.8583C23.8002 20.275 24.0336 19.6917 24.3836 19.225L26.3085 20.5667C26.1336 20.7417 26.0752 21.0333 26.0169 21.2667ZM21.7586 19.6917L19.4836 19.05C19.6586 18.4667 19.9502 17.8833 20.4169 17.4167L22.1086 19.05C21.9919 19.225 21.8169 19.4583 21.7586 19.6917ZM9.45022 28.325C9.21688 27.6833 9.21688 26.9833 9.56688 26.3417L11.6669 27.45L9.45022 28.325Z" fill="#2E2E2E"/>
<path d="M23.6112 38.381L22.6758 36.2434L21.7673 36.6409L22.7027 38.7785L23.6112 38.381Z" fill="#2E2E2E"/>
<path d="M26.1499 42.9434L25.2124 40.8067L24.3043 41.2052L25.2419 43.3419L26.1499 42.9434Z" fill="#2E2E2E"/>
<path d="M24.9235 47.3403L24.4575 45.054L23.0286 45.3452L23.4945 47.6315L24.9235 47.3403Z" fill="#2E2E2E"/>
<path d="M31.3696 46.5832L30.1152 44.6157L28.4921 45.6506L29.7465 47.6181L31.3696 46.5832Z" fill="#2E2E2E"/>
<path d="M26.7749 38.3583C26.7749 37.5417 27.1249 36.7833 27.7666 36.3167L29.2249 38.1833C29.1666 38.1833 29.1666 38.2417 29.1666 38.3L26.7749 38.3583Z" fill="#2E2E2E"/>
<path d="M33.0204 32.8021L31.7056 30.8745L30.5008 31.6963L31.8156 33.6239L33.0204 32.8021Z" fill="#2E2E2E"/>
<path d="M34.0084 38.0667L33.3667 35.7917C33.5417 35.7333 33.775 35.6167 33.8917 35.5L35.4084 37.3083C35 37.6583 34.5334 37.8917 34.0084 38.0667Z" fill="#2E2E2E"/>
<path d="M39.4252 32.0582L37.7324 30.4524L36.4076 31.8489L38.1004 33.4548L39.4252 32.0582Z" fill="#2E2E2E"/>
<path d="M20.693 33.95L18.646 32.8302L18.254 33.5466L20.3011 34.6665L20.693 33.95Z" fill="#2E2E2E"/>
<path d="M38.612 19.0257L36.5654 17.905L36.1732 18.6213L38.2197 19.742L38.612 19.0257Z" fill="#2E2E2E"/>
</g>
<defs>
<clipPath id="clip0_0_167">
<rect width="56" height="56" fill="white" transform="translate(0 0.5)"/>
</clipPath>
</defs>
</svg>
