<svg width="56" height="57" viewBox="0 0 56 57" fill="none" xmlns="http://www.w3.org/2000/svg">
<g clip-path="url(#clip0_0_200)">
<path d="M34.7083 37.075C30.2167 37.075 21.2333 32.8167 14.0583 25.6417C9.50833 21.0917 7.93333 16.075 7.875 12.5167L9.39167 10.0667L11.4917 8.49167C11.55 8.49167 11.6667 8.49167 11.725 8.49167C14.4667 8.49167 19.8333 9.30834 25.1417 14.5583C29.3417 18.7583 33.0167 24.1833 35.0583 29.0833C36.9833 33.8083 36.6917 36.375 36.225 36.7833C36.1667 36.8417 35.7 37.075 34.7083 37.075Z" fill="#F8B602"/>
<path d="M19.1916 28.3833C18.7833 28.3833 18.4916 28.2083 18.375 28.15C17.2666 27.5667 16.45 26.4583 15.9833 25.0583C15.6333 23.8917 15.6333 22.725 15.6333 21.675L17.9083 21.6167C17.9083 22.55 17.9666 23.5417 18.2 24.4167C18.3166 24.7667 18.4333 25.0583 18.6083 25.35C18.6666 25.1167 18.6666 24.65 19.0166 24.2417C19.5416 23.6 20.475 23.425 21.35 23.8917C21.4666 23.95 21.5833 24.0083 21.7 24.0667C21.7583 24.125 21.8166 24.125 21.875 24.1833C21.875 24.1833 21.875 24.1833 21.875 24.125C21.9333 23.95 21.9333 23.7167 21.875 23.3667C21.875 23.25 21.8166 23.1917 21.8166 23.075C21.7583 22.725 21.6416 22.375 21.6416 21.9667C21.6416 21.0917 22.1083 20.275 22.8666 19.9833C23.45 19.75 24.0333 19.8083 24.4416 19.925L23.975 18.2333C23.8583 17.825 23.975 17.4167 24.2666 17.125C24.2666 17.125 24.2666 17.125 24.325 17.0667C23.275 16.8917 22.1083 17.0083 21 17.125L20.7666 14.85C22.05 14.7333 23.5083 14.5583 24.9083 14.85C26.6583 15.2 28.0583 16.1333 28.8166 17.4167C28.9916 17.7083 28.9916 18.1167 28.875 18.4667C28.7 18.8167 28.4083 19.05 28.0583 19.1083C27.5916 19.1667 27.125 19.225 26.6583 19.225L26.7166 19.4C27.0083 20.45 26.8333 21.2667 26.25 21.7917C25.4916 22.4333 24.6166 22.2 24.15 22.0833C24.0916 22.0833 24.0333 22.0833 24.0333 22.025C24.0333 22.1417 24.0916 22.3167 24.15 22.4917C24.15 22.6083 24.2083 22.725 24.2083 22.8417C24.3833 23.6583 24.325 24.3583 24.0916 24.9417C23.6833 25.875 22.75 26.4583 21.8166 26.3417C21.4083 26.2833 21.1166 26.1667 20.8833 25.9917L20.7666 26.75C20.5916 28.0333 19.775 28.2667 19.4833 28.2667C19.3083 28.3833 19.25 28.3833 19.1916 28.3833Z" fill="#2E2E2E"/>
<path d="M15.2252 11.7C14.2919 12.6333 12.8335 12.6333 11.9002 11.7C10.9669 10.7667 10.9669 9.30833 11.9002 8.375C12.8335 7.44166 14.2919 7.44166 15.2252 8.375C16.1585 9.30833 16.1585 10.7667 15.2252 11.7Z" fill="#A6C44A"/>
<path d="M13.5334 13.5083C12.6001 13.5083 11.7251 13.1583 11.0834 12.4583C9.74173 11.1167 9.74173 8.9 11.0834 7.5C11.7251 6.85833 12.6001 6.45 13.5334 6.45C14.4667 6.45 15.3417 6.8 15.9834 7.5C17.3251 8.84166 17.3251 11.0583 15.9834 12.4583C15.3417 13.1583 14.4667 13.5083 13.5334 13.5083ZM13.5334 8.78333C13.1834 8.78333 12.8917 8.9 12.6584 9.13333C12.1917 9.6 12.1917 10.4167 12.6584 10.8833C13.1251 11.35 13.9417 11.35 14.4084 10.8833C14.8751 10.4167 14.8751 9.6 14.4084 9.13333C14.1751 8.9 13.8834 8.78333 13.5334 8.78333Z" fill="#2E2E2E"/>
<path d="M34.7083 42.5583C28.0583 42.5583 17.7917 37.075 10.2083 29.4917C1.45833 20.7417 1.80833 11.175 3.20833 7.325L3.49999 6.45L5.83333 6.68333L5.54166 4.23333L6.29999 3.88333C10.675 2.075 20.7083 2.30833 28.9917 10.65C38.675 20.3333 45.5 35.2083 40.075 40.6333C38.85 41.8583 37.0417 42.5583 34.7083 42.5583ZM5.07499 8.9C4.02499 13.1 4.95833 20.975 11.7833 27.8583C18.8417 34.9167 28.7 40.225 34.7083 40.225C36.4 40.225 37.6833 39.8167 38.5583 38.9417C42.525 34.975 36.9833 21.7333 27.475 12.1667C20.3583 5.16666 12.1333 4.46666 7.99166 5.69166L8.39999 9.30833L5.07499 8.9Z" fill="#2E2E2E"/>
<path d="M40.9498 35.6167C40.8915 37.3667 40.3665 38.825 39.3748 39.8167C38.3831 40.8083 36.9248 41.3333 35.1748 41.3917L38.6165 53.9917L53.4915 39L40.9498 35.6167Z" fill="#A6C44A"/>
<path d="M37.9749 56.15L33.6582 40.2833L35.0582 40.225C36.5749 40.1667 37.7415 39.7583 38.4999 38.9417C39.2582 38.1833 39.6665 37.0167 39.7832 35.5L39.8415 34.1L55.7082 38.4167L37.9749 56.15ZM36.5749 42.3833L39.1415 51.8333L51.3332 39.5833L41.8832 37.0167C41.5915 38.475 41.0082 39.6417 40.1332 40.575C39.2582 41.5083 38.0332 42.0917 36.5749 42.3833Z" fill="#2E2E2E"/>
<path d="M26.4248 52.9417C25.7248 52.9417 25.0248 52.9417 24.3832 52.8833L24.5582 50.6083C25.1998 50.6667 25.8415 50.6667 26.4248 50.6667C26.5415 50.6667 26.5998 50.6667 26.7165 50.6667L26.7748 52.9417C26.6582 52.9417 26.5415 52.9417 26.4248 52.9417ZM30.2748 52.65L29.9248 50.4333C30.6248 50.3167 31.3248 50.2 32.0248 50.025L32.5498 52.2417C31.8498 52.3583 31.0332 52.5333 30.2748 52.65ZM20.8832 52.3583C20.1248 52.1833 19.3665 52.0083 18.6082 51.775L19.3082 49.6167C20.0082 49.85 20.7082 50.025 21.4082 50.1417L20.8832 52.3583ZM15.2832 50.4917C14.5832 50.1417 13.8832 49.7917 13.1832 49.3833L14.3498 47.4583C14.9915 47.8083 15.6332 48.1583 16.2748 48.45L15.2832 50.4917ZM10.2665 47.3417C9.62484 46.875 9.0415 46.35 8.45817 45.7667L10.0332 44.1333C10.5582 44.6 11.0832 45.125 11.6665 45.5333L10.2665 47.3417ZM6.0665 43.2C5.59984 42.5583 5.07484 41.9167 4.6665 41.275L6.53317 40.05C6.9415 40.6333 7.34984 41.2167 7.8165 41.8L6.0665 43.2ZM2.9165 38.2417C2.5665 37.5417 2.27484 36.7833 1.98317 36.0833L4.08317 35.2667C4.3165 35.9667 4.60817 36.6083 4.95817 37.25L2.9165 38.2417ZM0.93317 32.6417C0.758171 31.8833 0.641504 31.0667 0.524837 30.3083L2.7415 30.0167C2.85817 30.7167 2.97484 31.4167 3.14984 32.1167L0.93317 32.6417ZM2.5665 26.8083H0.291504C0.291504 26.05 0.349837 25.2333 0.408171 24.475L2.68317 24.7083C2.62484 25.35 2.5665 26.05 2.5665 26.8083Z" fill="#2E2E2E"/>
<path d="M52.0334 31.2417L49.8167 30.8917C49.9334 30.1917 50.0501 29.4917 50.1084 28.7333L52.3834 28.9083C52.2667 29.6667 52.2084 30.4833 52.0334 31.2417ZM50.1084 25.4667C50.0501 24.7667 49.9917 24.0083 49.8751 23.3083L52.0917 22.9583C52.2084 23.7167 52.2667 24.5333 52.3251 25.2917L50.1084 25.4667ZM49.1751 20.1583C49.0001 19.4583 48.7667 18.7583 48.4751 18.1167L50.5751 17.3C50.8667 18.0583 51.1001 18.7583 51.3334 19.5167L49.1751 20.1583ZM47.1334 15.2C46.7834 14.5583 46.3751 13.975 45.9667 13.3917L47.8334 12.1083C48.3001 12.75 48.7084 13.45 49.0584 14.0917L47.1334 15.2ZM43.9834 10.825C43.5167 10.3 42.9917 9.775 42.4667 9.30833L43.9834 7.61666C44.5667 8.14166 45.1501 8.725 45.6751 9.30833L43.9834 10.825ZM39.9001 7.26666C39.3167 6.85833 38.6751 6.45 38.0917 6.1L39.2001 4.11666C39.9001 4.525 40.5417 4.93333 41.1834 5.4L39.9001 7.26666ZM35.1751 4.75833C34.4751 4.46666 33.8334 4.23333 33.1334 4L33.7751 1.84166C34.5334 2.075 35.2917 2.30833 35.9917 2.6L35.1751 4.75833ZM22.4584 3.35833L22.1084 1.14166C22.8667 1.025 23.6834 0.908331 24.4417 0.849997L24.6167 3.125C23.8584 3.18333 23.1584 3.24166 22.4584 3.35833ZM29.9834 3.3C29.2834 3.18333 28.5251 3.125 27.8251 3.06666L27.9417 0.791664C28.7001 0.849997 29.5167 0.908331 30.2751 1.025L29.9834 3.3Z" fill="#2E2E2E"/>
</g>
<defs>
<clipPath id="clip0_0_200">
<rect width="56" height="56" fill="white" transform="translate(0 0.5)"/>
</clipPath>
</defs>
</svg>
